<svg xmlns="http://www.w3.org/2000/svg" version="1.1" xmlns:xlink="http://www.w3.org/1999/xlink" xmlns:svgjs="http://svgjs.com/svgjs" width="1440" height="560" preserveAspectRatio="none" viewBox="0 0 1440 560"><g mask="url(&quot;#SvgjsMask1034&quot;)" fill="none"><rect width="1440" height="560" x="0" y="0" fill="rgba(67, 33, 181, 1)"></rect><path d="M0,520.341C104.942,520.849,227.855,545.759,305.052,474.67C382.833,403.044,341.518,271.845,377.727,172.502C409.87,84.313,499.444,21.192,504.498,-72.536C509.923,-173.139,487.364,-292.387,405.998,-351.8C323.677,-411.911,203.216,-330.562,106.608,-363.074C3.305,-397.839,-51.428,-558.659,-159.142,-541.988C-262.197,-526.038,-278.88,-379.009,-339.356,-294.054C-392.936,-218.786,-483.556,-162.836,-494.362,-71.079C-505.122,20.287,-425.81,93.731,-395.245,180.502C-360.72,278.516,-381.956,403.978,-303.161,471.728C-223.954,539.832,-104.459,519.836,0,520.341" fill="#2c1676"></path><path d="M1440 1055.24C1532.124 1050.891 1572.958 935.61 1642.343 874.852 1699.426 824.866 1780.661 798.987 1811.702 729.751 1842.684 660.648 1817.16 582.277 1807.174 507.20799999999997 1797.077 431.304 1793.45 353.791 1753.039 288.75 1708.464 217.007 1648.436 149.71300000000002 1568.3609999999999 122.84300000000002 1487.175 95.60000000000002 1400.135 120.35700000000003 1317.433 142.57600000000002 1233.016 165.25599999999997 1130.093 177.58300000000003 1085.277 252.63099999999997 1040.199 328.119 1108.204 423.488 1097.564 510.765 1087.28 595.119 997.905 669.019 1024.684 749.669 1051.188 829.4929999999999 1157.248 844.7080000000001 1224.996 894.554 1298.5529999999999 948.674 1348.78 1059.546 1440 1055.24" fill="#6744dd"></path></g><defs><mask id="SvgjsMask1034"><rect width="1440" height="560" fill="#ffffff"></rect></mask></defs></svg>